<?xml version="1.0" encoding="utf-8"?>
<!-- Generator: Adobe Illustrator 24.0.3, SVG Export Plug-In . SVG Version: 6.00 Build 0)  -->
<svg version="1.1" id="Layer_1" xmlns="http://www.w3.org/2000/svg" xmlns:xlink="http://www.w3.org/1999/xlink" x="0px" y="0px"
	 viewBox="0 0 64 64" style="enable-background:new 0 0 64 64;" xml:space="preserve">
<style type="text/css">
	.st0{fill:#A8AAAA;}
</style>
<g>
	<path class="st0" d="M10,2.7c-5,0-9,4-9,9s4,9,9,9s9-4,9-9S14.9,2.7,10,2.7z M14.1,11.7c0,2.2-1.8,4-4,4s-4-1.8-4-4s1.8-4,4-4
		C12.3,7.6,14.1,9.4,14.1,11.7L14.1,11.7z"/>
	<path class="st0" d="M32.1,2.7c-5,0-9,4-9,9s4,9,9,9s9-4,9-9S36.9,2.7,32.1,2.7z M36.1,11.7c0,2.2-1.8,4-4,4l0,0
		c-2.2,0-4-1.8-4-4.1c0-1.1,0.4-2.1,1.2-2.9c0.8-0.8,1.8-1.1,2.9-1.2C34.3,7.6,36.1,9.5,36.1,11.7z"/>
	<path class="st0" d="M54,20.7L54,20.7c5,0,9-4,9-9s-4-9-9-9l0,0c-5,0-9,4-9,9S49.1,20.7,54,20.7z M58,11.7c0,2.2-1.8,4-4,4
		c-2.2,0-4-1.8-4-4s1.8-4,4-4C56.2,7.6,58,9.5,58,11.7z"/>
	<path class="st0" d="M10,23c-5,0-9,4-9,9s4,9,9,9s9-4,9-9S14.9,23,10,23z M14.1,32c0,2.2-1.8,4-4,4s-4-1.8-4-4c0-2.2,1.8-4,4-4
		S14.1,29.8,14.1,32z"/>
	<path class="st0" d="M32.1,23c-5,0-9,4-9,9s4,9,9,9s9-4,9-9C40.9,27,36.9,23,32.1,23z M36.1,32c0,2.2-1.8,4-4,4l0,0
		c-2.2,0-4-1.8-4-4.1c0-1.1,0.4-2.1,1.2-2.9c0.8-0.8,1.8-1.2,2.9-1.2C34.3,28,36.1,29.8,36.1,32z"/>
	<path class="st0" d="M54,23c-5,0-9,4-9,9s4,9,9,9s9-4,9-9S58.9,23,54,23z M58,32c0,2.2-1.8,4-4,4c-2.2,0-4-1.8-4-4c0-2.2,1.8-4,4-4
		S58,29.8,58,32z"/>
	<path class="st0" d="M10,43.3c-5,0-9,4-9,9s4,9,9,9s9-4,9-9C19,47.3,14.9,43.3,10,43.3z M14.1,52.3c0,2.2-1.8,4-4,4s-4-1.8-4-4
		s1.8-4,4-4S14.1,50.1,14.1,52.3z"/>
	<path class="st0" d="M32.1,43.3c-5,0-9,4-9,9s4,9,9,9s9-4,9-9C40.9,47.3,36.9,43.3,32.1,43.3z M36.1,52.3c0,2.2-1.8,4-4,4l0,0
		c-2.2,0-4-1.8-4-4.1c0-1.1,0.4-2.1,1.2-2.9c0.8-0.8,1.8-1.2,2.9-1.2l0,0C34.3,48.3,36.1,50.1,36.1,52.3z"/>
</g>
</svg>
