<?xml version="1.0" encoding="utf-8"?>
<!-- Generator: Adobe Illustrator 24.0.3, SVG Export Plug-In . SVG Version: 6.00 Build 0)  -->
<svg version="1.1" id="Layer_1" xmlns="http://www.w3.org/2000/svg" xmlns:xlink="http://www.w3.org/1999/xlink" x="0px" y="0px"
	 viewBox="0 0 64 64" style="enable-background:new 0 0 64 64;" xml:space="preserve">
<style type="text/css">
	.st0{fill:none;stroke:#6F50D9;stroke-width:4;stroke-linecap:round;stroke-linejoin:round;stroke-miterlimit:10;}
</style>
<path class="st0" d="M53.1,8.8H10.8c-3.1,0-5.5,2.5-5.5,5.5V40c0,3.1,2.5,5.5,5.5,5.5H41l9.5,9.5c0.5,0.5,1.4,0.2,1.4-0.5v-9h1.3
	c3.1,0,5.5-2.5,5.5-5.5V14.3C58.7,11.2,56.2,8.8,53.1,8.8z M20.4,30c-1.6,0-2.9-1.3-2.9-2.9s1.3-2.9,2.9-2.9c1.6,0,2.9,1.3,2.9,2.9
	S22,30,20.4,30z M32,30c-1.6,0-2.9-1.3-2.9-2.9s1.3-2.9,2.9-2.9c1.6,0,2.9,1.3,2.9,2.9S33.6,30,32,30z M43.6,30
	c-1.6,0-2.9-1.3-2.9-2.9s1.3-2.9,2.9-2.9c1.6,0,2.9,1.3,2.9,2.9S45.2,30,43.6,30z"/>
</svg>
