<?xml version="1.0" encoding="utf-8"?>
<!-- Generator: Adobe Illustrator 24.0.3, SVG Export Plug-In . SVG Version: 6.00 Build 0)  -->
<svg version="1.1" id="Layer_1" xmlns="http://www.w3.org/2000/svg" xmlns:xlink="http://www.w3.org/1999/xlink" x="0px" y="0px"
	 viewBox="0 0 186 128" style="enable-background:new 0 0 186 128;" xml:space="preserve">
<style type="text/css">
	.st0{fill:none;stroke:#D9D3EA;stroke-width:3;stroke-miterlimit:10;}
	.st1{fill:none;stroke:#6834F0;stroke-width:3;stroke-miterlimit:10;}
	.st2{fill:#6834F0;}
	.st3{fill:#D9D3EA;}
</style>
<circle class="st0" cx="31" cy="96" r="18.4"/>
<circle class="st0" cx="93" cy="96" r="18.4"/>
<circle class="st1" cx="31" cy="32" r="18.4"/>
<circle class="st1" cx="93.1" cy="32" r="18.4"/>
<circle class="st1" cx="155.2" cy="32" r="18.4"/>
<circle class="st2" cx="31" cy="32" r="3.5"/>
<circle class="st3" cx="31" cy="96" r="3.5"/>
<circle class="st2" cx="83.9" cy="32" r="3"/>
<circle class="st2" cx="93" cy="32" r="3"/>
<circle class="st2" cx="102.3" cy="32" r="3"/>
<circle class="st2" cx="149.6" cy="27.5" r="2.9"/>
<circle class="st2" cx="160.8" cy="27.5" r="2.9"/>
<circle class="st2" cx="149.6" cy="36.5" r="2.9"/>
<circle class="st2" cx="160.8" cy="36.5" r="2.9"/>
<circle class="st3" cx="149.6" cy="91.5" r="2.9"/>
<circle class="st3" cx="160.8" cy="91.5" r="2.9"/>
<circle class="st3" cx="149.6" cy="100.5" r="2.9"/>
<circle class="st3" cx="160.8" cy="100.5" r="2.9"/>
<circle class="st3" cx="83.9" cy="96" r="3"/>
<circle class="st3" cx="93" cy="96" r="3"/>
<circle class="st3" cx="102.3" cy="96" r="3"/>
<circle class="st0" cx="155.2" cy="96" r="18.4"/>
</svg>
