<?xml version="1.0" encoding="utf-8"?>
<!-- Generator: Adobe Illustrator 24.0.3, SVG Export Plug-In . SVG Version: 6.00 Build 0)  -->
<svg version="1.1" id="Layer_1" xmlns="http://www.w3.org/2000/svg" xmlns:xlink="http://www.w3.org/1999/xlink" x="0px" y="0px"
	 viewBox="0 0 64 64" style="enable-background:new 0 0 64 64;" xml:space="preserve">
<style type="text/css">
	.st0{fill:#FFFFFF;}
</style>
<g>
	<path class="st0" d="M43.8,36.5L34.1,32V21.4c0-1.2-0.9-2.1-2.1-2.1c-1.2,0-2.1,0.9-2.1,2.1v12c0,0,0,0.1,0,0.1c0,0.1,0,0.2,0,0.3
		c0,0.1,0,0.1,0,0.2c0,0.1,0,0.1,0.1,0.2c0,0.1,0.1,0.1,0.1,0.2c0,0.1,0.1,0.1,0.1,0.2c0,0.1,0.1,0.1,0.1,0.1c0,0.1,0.1,0.1,0.1,0.2
		c0,0,0.1,0.1,0.1,0.1c0.1,0,0.1,0.1,0.2,0.1c0.1,0,0.1,0.1,0.2,0.1c0,0,0.1,0.1,0.1,0.1l10.9,5c0.3,0.1,0.6,0.2,0.9,0.2
		c0.8,0,1.6-0.5,1.9-1.2C45.3,38.2,44.8,36.9,43.8,36.5z"/>
	<path class="st0" d="M32,5.5c-9.2,0-17.5,4.6-22.3,12.2l0-7.3c0-1.2-0.9-2.1-2.1-2.1c0,0,0,0,0,0c-1.2,0-2.1,0.9-2.1,2.1l0,12.2
		c0,0.6,0.2,1.1,0.6,1.5c0.4,0.4,0.9,0.6,1.5,0.6c0,0,0,0,0,0l2.3,0c0,0,0,0,0,0l9.9,0c1.2,0,2.1-0.9,2.1-2.1c0-1.2-0.9-2.1-2.1-2.1
		c0,0,0,0,0,0l-7,0c4-6.7,11.2-10.8,19.1-10.8c12.3,0,22.3,10,22.3,22.3c0,12.3-10,22.3-22.3,22.3c-10.1,0-18.9-6.8-21.5-16.5
		C10.2,36.7,9,36,7.9,36.3c-1.1,0.3-1.8,1.4-1.5,2.6C9.5,50.4,20,58.5,32,58.5c14.6,0,26.5-11.9,26.5-26.5
		C58.5,17.4,46.6,5.5,32,5.5z"/>
</g>
</svg>
