<?xml version="1.0" encoding="utf-8"?>
<!-- Generator: Adobe Illustrator 24.0.3, SVG Export Plug-In . SVG Version: 6.00 Build 0)  -->
<svg version="1.1" id="Layer_1" xmlns="http://www.w3.org/2000/svg" xmlns:xlink="http://www.w3.org/1999/xlink" x="0px" y="0px"
	 viewBox="0 0 64 128" style="enable-background:new 0 0 64 128;" xml:space="preserve">
<style type="text/css">
	.st0{fill:none;}
	.st1{fill:#6834F0;}
	.st2{fill:#D9D3EA;}
</style>
<ellipse class="st0" cx="-80.2" cy="14" rx="8.1" ry="8.1"/>
<path class="st1" d="M38.9,33.3c2.9-2.1,4.9-5.6,4.9-9.5c0-6.4-5.2-11.7-11.7-11.7s-11.7,5.2-11.7,11.7c0,3.9,1.9,7.4,4.9,9.5l0,0
	C18.7,36,14,42.5,14,50.1v0.1c0.1,0.9,0.8,1.7,1.8,1.7c0.9,0,1.7-0.7,1.7-1.7v-0.1c0-8,6.5-14.5,14.6-14.4
	c8.1-0.1,14.6,6.4,14.6,14.4v0.1c0,1,0.8,1.7,1.7,1.7c1,0,1.7-0.8,1.8-1.7v-0.1C50.2,42.5,45.5,36,38.9,33.3z M32,32
	c-4.4,0-8.1-3.7-8.1-8.1c0-4.5,3.7-8.1,8.1-8.1s8.1,3.7,8.1,8.1S36.4,32,32,32z"/>
<path class="st2" d="M38.9,97.3c2.9-2.1,4.9-5.6,4.9-9.5c0-6.4-5.2-11.7-11.7-11.7s-11.7,5.2-11.7,11.7c0,3.9,1.9,7.4,4.9,9.5l0,0
	C18.7,100,14,106.5,14,114.1v0.1c0.1,0.9,0.8,1.7,1.8,1.7c0.9,0,1.7-0.7,1.7-1.7v-0.1c0-8,6.5-14.5,14.6-14.4
	c8.1-0.1,14.6,6.4,14.6,14.4v0.1c0,1,0.8,1.7,1.7,1.7c1,0,1.7-0.8,1.8-1.7v-0.1C50.2,106.5,45.5,100,38.9,97.3z M32,96
	c-4.4,0-8.1-3.7-8.1-8.1c0-4.5,3.7-8.1,8.1-8.1s8.1,3.7,8.1,8.1S36.4,96,32,96z"/>
</svg>
