<?xml version="1.0" encoding="utf-8"?>
<!-- Generator: Adobe Illustrator 24.0.3, SVG Export Plug-In . SVG Version: 6.00 Build 0)  -->
<svg version="1.1" id="Layer_1" xmlns="http://www.w3.org/2000/svg" xmlns:xlink="http://www.w3.org/1999/xlink" x="0px" y="0px"
	 viewBox="0 0 64 64" style="enable-background:new 0 0 64 64;" xml:space="preserve">
<g>
	<path d="M32,15c-2.8,0-5.2,2.3-5.2,5.2s2.3,5.2,5.2,5.2s5.2-2.3,5.2-5.2S34.8,15,32,15z M34.4,20.2c0,1.3-1,2.4-2.4,2.4
		c-1.3,0-2.4-1-2.4-2.4c0-1.3,1-2.4,2.4-2.4C33.3,17.9,34.3,18.9,34.4,20.2L34.4,20.2z"/>
	<path d="M32,26.8c-2.8,0-5.2,2.3-5.2,5.2c0,2.8,2.3,5.2,5.2,5.2s5.2-2.3,5.2-5.2C37.2,29.1,34.8,26.8,32,26.8z M34.4,32
		c0,1.3-1,2.4-2.4,2.4c-1.3,0-2.4-1-2.4-2.4c0-1.3,1-2.4,2.4-2.4C33.3,29.6,34.4,30.7,34.4,32z"/>
	<path d="M32,38.6c-2.8,0-5.2,2.3-5.2,5.2c0,2.8,2.3,5.2,5.2,5.2s5.2-2.3,5.2-5.2C37.2,40.9,34.8,38.6,32,38.6z M34.4,43.7
		c0,1.3-1,2.4-2.4,2.4c-1.3,0-2.4-1-2.4-2.4c0-1.3,1-2.4,2.4-2.4C33.3,41.4,34.4,42.4,34.4,43.7z"/>
</g>
</svg>
