<?xml version="1.0" encoding="utf-8"?>
<!-- Generator: Adobe Illustrator 24.0.3, SVG Export Plug-In . SVG Version: 6.00 Build 0)  -->
<svg version="1.1" id="Layer_1" xmlns="http://www.w3.org/2000/svg" xmlns:xlink="http://www.w3.org/1999/xlink" x="0px" y="0px"
	 viewBox="0 0 64 64" style="enable-background:new 0 0 64 64;" xml:space="preserve">
<style type="text/css">
	.st0{fill:#6F50D9;}
</style>
<path class="st0" d="M54.3,29.4H34.6V9.7c0-1.5-1.2-2.6-2.6-2.6l0,0c-1.5,0-2.6,1.2-2.6,2.6v19.7H9.7l0,0c-1.5,0-2.6,1.2-2.6,2.6
	c0,1.5,1.2,2.6,2.6,2.6h19.7v19.7c0,1.5,1.2,2.6,2.6,2.6l0,0c1.5,0,2.6-1.2,2.6-2.6V34.6h19.7l0,0c1.5,0,2.6-1.2,2.6-2.6
	C56.9,30.6,55.7,29.4,54.3,29.4z"/>
</svg>
