<?xml version="1.0" encoding="utf-8"?>
<!-- Generator: Adobe Illustrator 24.0.3, SVG Export Plug-In . SVG Version: 6.00 Build 0)  -->
<svg version="1.1" id="Layer_1" xmlns="http://www.w3.org/2000/svg" xmlns:xlink="http://www.w3.org/1999/xlink" x="0px" y="0px"
	 viewBox="0 0 64 64" style="enable-background:new 0 0 64 64;" xml:space="preserve">
<style type="text/css">
	.st0{fill:#FFFFFF;}
</style>
<path class="st0" d="M52.6,16h-9.7l-0.6-5.1c0-0.1,0-0.2-0.1-0.3c-0.6-2-2.7-3.6-4.7-3.6h-11c-2,0-4.1,1.6-4.8,3.7
	c0,0.1-0.1,0.2-0.1,0.3l-0.5,5h-9.7c-1.1,0-2.1,0.9-2.1,2.1c0,1.1,0.9,2.1,2.1,2.1H12l4.1,31.7c0.2,2.9,2.6,5.2,5.5,5.2h20.7
	c2.9,0,5.3-2.3,5.5-5.2l4.1-31.7h0.6c1.1,0,2.1-0.9,2.1-2.1C54.6,17,53.7,16,52.6,16z M25.7,11.9c0.2-0.4,0.6-0.7,0.8-0.7h11
	c0.2,0,0.6,0.3,0.8,0.7l0.4,4.1H25.3L25.7,11.9z M43.7,51.4c0,0.1,0,0.1,0,0.2c0,0.7-0.7,1.3-1.4,1.3H21.6c-0.7,0-1.3-0.6-1.4-1.3
	c0-0.1,0-0.1,0-0.2l-4-31.2h7.6l0,0h16.4l0,0l0,0h7.5L43.7,51.4z"/>
</svg>
