<?xml version="1.0" encoding="utf-8"?>
<!-- Generator: Adobe Illustrator 24.0.3, SVG Export Plug-In . SVG Version: 6.00 Build 0)  -->
<svg version="1.1" id="Layer_1" xmlns="http://www.w3.org/2000/svg" xmlns:xlink="http://www.w3.org/1999/xlink" x="0px" y="0px"
	 viewBox="0 0 64 64" style="enable-background:new 0 0 64 64;" xml:space="preserve">
<path d="M35.6,32l14.2-14.2c1-1,1-2.6,0-3.6s-2.6-1-3.6,0L32,28.4L17.8,14.2c-1-1-2.6-1-3.6,0s-1,2.6,0,3.6L28.4,32L14.2,46.2
	c-1,1-1,2.6,0,3.6s2.6,1,3.6,0L32,35.6l14.2,14.2c0.5,0.5,1.1,0.7,1.8,0.7s1.3-0.2,1.8-0.7c1-1,1-2.6,0-3.6L35.6,32z"/>
</svg>
