<?xml version="1.0" encoding="utf-8"?>
<!-- Generator: Adobe Illustrator 24.0.3, SVG Export Plug-In . SVG Version: 6.00 Build 0)  -->
<svg version="1.1" id="Layer_1" xmlns="http://www.w3.org/2000/svg" xmlns:xlink="http://www.w3.org/1999/xlink" x="0px" y="0px"
	 viewBox="0 0 64 64" style="enable-background:new 0 0 64 64;" xml:space="preserve">
<style type="text/css">
	.st0{fill:#6F50D9;}
</style>
<g>
	<path class="st0" d="M24,10.8c-3.6,0-6.5,2.9-6.5,6.5s2.9,6.5,6.5,6.5s6.5-2.9,6.5-6.5S27.6,10.8,24,10.8z M27,17.3
		c0,1.6-1.3,2.9-2.9,2.9c-1.6,0-2.9-1.3-2.9-2.9c0-1.6,1.3-2.9,2.9-2.9C25.7,14.3,27,15.6,27,17.3L27,17.3z"/>
	<path class="st0" d="M40,10.8c-3.6,0-6.5,2.9-6.5,6.5s2.9,6.5,6.5,6.5s6.5-2.9,6.5-6.5S43.5,10.8,40,10.8z M42.9,17.3
		c0,1.6-1.3,2.9-2.9,2.9h0c-1.6,0-2.9-1.3-2.9-3c0-0.8,0.3-1.5,0.9-2.1c0.6-0.6,1.3-0.8,2.1-0.9C41.6,14.3,42.9,15.7,42.9,17.3z"/>
	<path class="st0" d="M55.9,23.8C55.9,23.8,55.9,23.8,55.9,23.8c3.6,0,6.5-2.9,6.5-6.5c0-3.6-2.9-6.5-6.5-6.5c0,0,0,0,0,0
		c-3.6,0-6.5,2.9-6.5,6.5C49.4,20.9,52.3,23.8,55.9,23.8z M58.8,17.3c0,1.6-1.3,2.9-2.9,2.9c-1.6,0-2.9-1.3-2.9-2.9
		c0-1.6,1.3-2.9,2.9-2.9C57.5,14.3,58.8,15.7,58.8,17.3z"/>
	<path class="st0" d="M8.1,25.5c-3.6,0-6.5,2.9-6.5,6.5c0,3.6,2.9,6.5,6.5,6.5c3.6,0,6.5-2.9,6.5-6.5C14.6,28.4,11.7,25.5,8.1,25.5z
		 M8.1,34.9L8.1,34.9c-0.8,0-1.5-0.3-2.1-0.9c-0.6-0.6-0.9-1.3-0.9-2.1c0-0.8,0.3-1.5,0.9-2.1c0.6-0.6,1.3-0.9,2.1-0.9c0,0,0,0,0,0
		c1.6,0,2.9,1.3,2.9,2.9C11.1,33.6,9.8,34.9,8.1,34.9z"/>
	<path class="st0" d="M24,25.5c-3.6,0-6.5,2.9-6.5,6.5c0,3.6,2.9,6.5,6.5,6.5s6.5-2.9,6.5-6.5C30.5,28.4,27.6,25.5,24,25.5z M27,32
		c0,1.6-1.3,2.9-2.9,2.9c-1.6,0-2.9-1.3-2.9-2.9c0-1.6,1.3-2.9,2.9-2.9C25.7,29.1,27,30.4,27,32z"/>
	<path class="st0" d="M40,25.5c-3.6,0-6.5,2.9-6.5,6.5c0,3.6,2.9,6.5,6.5,6.5s6.5-2.9,6.5-6.5C46.4,28.4,43.5,25.5,40,25.5z
		 M42.9,32c0,1.6-1.3,2.9-2.9,2.9h0c-1.6,0-2.9-1.3-2.9-3c0-0.8,0.3-1.5,0.9-2.1c0.6-0.6,1.3-0.9,2.1-0.9
		C41.6,29.1,42.9,30.4,42.9,32z"/>
	<path class="st0" d="M55.9,25.5c-3.6,0-6.5,2.9-6.5,6.5c0,3.6,2.9,6.5,6.5,6.5s6.5-2.9,6.5-6.5C62.4,28.4,59.4,25.5,55.9,25.5z
		 M58.8,32c0,1.6-1.3,2.9-2.9,2.9c-1.6,0-2.9-1.3-2.9-2.9c0-1.6,1.3-2.9,2.9-2.9C57.5,29.1,58.8,30.4,58.8,32z"/>
	<path class="st0" d="M8.1,40.2c-3.6,0-6.5,2.9-6.5,6.5c0,3.6,2.9,6.5,6.5,6.5c3.6,0,6.5-2.9,6.5-6.5C14.6,43.1,11.7,40.2,8.1,40.2z
		 M8.1,49.7L8.1,49.7c-0.8,0-1.5-0.3-2.1-0.9c-0.6-0.6-0.9-1.3-0.9-2.1c0-0.8,0.3-1.5,0.9-2.1c0.6-0.6,1.3-0.9,2.1-0.9
		c1.6,0,2.9,1.3,2.9,2.9C11.1,48.3,9.8,49.7,8.1,49.7z"/>
	<path class="st0" d="M24,40.2c-3.6,0-6.5,2.9-6.5,6.5c0,3.6,2.9,6.5,6.5,6.5s6.5-2.9,6.5-6.5C30.5,43.1,27.6,40.2,24,40.2z
		 M27,46.7c0,1.6-1.3,2.9-2.9,2.9c-1.6,0-2.9-1.3-2.9-2.9c0-1.6,1.3-2.9,2.9-2.9C25.7,43.8,27,45.1,27,46.7z"/>
	<path class="st0" d="M40,40.2c-3.6,0-6.5,2.9-6.5,6.5c0,3.6,2.9,6.5,6.5,6.5s6.5-2.9,6.5-6.5C46.4,43.1,43.5,40.2,40,40.2z
		 M42.9,46.7c0,1.6-1.3,2.9-2.9,2.9h0c-1.6,0-2.9-1.3-2.9-3c0-0.8,0.3-1.5,0.9-2.1c0.6-0.6,1.3-0.9,2.1-0.9c0,0,0,0,0,0
		C41.6,43.8,42.9,45.1,42.9,46.7z"/>
</g>
</svg>
