<?xml version="1.0" encoding="utf-8"?>
<!-- Generator: Adobe Illustrator 24.0.3, SVG Export Plug-In . SVG Version: 6.00 Build 0)  -->
<svg version="1.1" id="Layer_1" xmlns="http://www.w3.org/2000/svg" xmlns:xlink="http://www.w3.org/1999/xlink" x="0px" y="0px"
	 viewBox="0 0 64 64" style="enable-background:new 0 0 64 64;" xml:space="preserve">
<style type="text/css">
	.st0{fill:#D9D3EA;}
</style>
<path class="st0" d="M52.2,33.2c2.9-2.1,4.9-5.6,4.9-9.5c0-6.4-5.2-11.7-11.7-11.7s-11.7,5.2-11.7,11.7c0,3.9,1.9,7.4,4.9,9.5
	c-2.5,1-4.8,2.6-6.6,4.6c-1.8-2-4-3.6-6.6-4.6c2.9-2.1,4.9-5.6,4.9-9.5c0-6.4-5.2-11.7-11.7-11.7S6.9,17.3,6.9,23.8
	c0,3.9,1.9,7.4,4.9,9.5C5.2,35.9,0.5,42.4,0.5,50v0.2c0,1,0.8,1.7,1.8,1.7V52h16.3c1,0,1.8-0.8,1.8-1.8s-0.8-1.8-1.8-1.8H4.1
	c0.8-7.3,7-12.9,14.5-12.9c8,0,14.6,6.5,14.6,14.6v0.1c0,1,0.8,1.7,1.7,1.7l0,0c1,0,1.7-0.8,1.8-1.7v-0.1c0-3.4-0.9-6.5-2.6-9.2
	c0.1-0.1,0.2-0.2,0.2-0.3c2.8-3.2,6.8-5,11-5C53.4,35.4,60,42,60,50v0.1c0,1,0.8,1.7,1.7,1.7l0,0c1,0,1.7-0.8,1.8-1.7V50
	C63.5,42.4,58.8,35.9,52.2,33.2 M10.5,23.8c0-4.5,3.7-8.1,8.1-8.1s8.1,3.7,8.1,8.1s-3.7,8.1-8.1,8.1S10.5,28.2,10.5,23.8 M37.2,23.8
	c0-4.5,3.7-8.1,8.1-8.1s8.1,3.7,8.1,8.1s-3.7,8.1-8.1,8.1S37.2,28.2,37.2,23.8"/>
</svg>
