<?xml version="1.0" encoding="utf-8"?>
<!-- Generator: Adobe Illustrator 24.0.3, SVG Export Plug-In . SVG Version: 6.00 Build 0)  -->
<svg version="1.1" id="Layer_1" xmlns="http://www.w3.org/2000/svg" xmlns:xlink="http://www.w3.org/1999/xlink" x="0px" y="0px"
	 viewBox="0 0 64 64" style="enable-background:new 0 0 64 64;" xml:space="preserve">
<g>
	<path d="M43.4,36.3L34,32V21.8c0-1.2-0.9-2-2-2c-1.2,0-2,0.9-2,2v11.5v0.1c0,0.1,0,0.2,0,0.3s0,0.1,0,0.2c0,0.1,0,0.1,0.1,0.2
		c0,0.1,0.1,0.1,0.1,0.2c0,0.1,0.1,0.1,0.1,0.2c0,0.1,0.1,0.1,0.1,0.1c0,0.1,0.1,0.1,0.1,0.2l0.1,0.1c0.1,0,0.1,0.1,0.2,0.1
		c0.1,0,0.1,0.1,0.2,0.1l0.1,0.1L41.5,40c0.3,0.1,0.6,0.2,0.9,0.2c0.8,0,1.5-0.5,1.8-1.2C44.8,38,44.3,36.7,43.4,36.3z"/>
	<path d="M32,6.5c-8.9,0-16.8,4.4-21.5,11.7v-7c0-1.2-0.9-2-2-2l0,0c-1.2,0-2,0.9-2,2V23c0,0.6,0.2,1.1,0.6,1.4S7.9,25,8.5,25l0,0
		h2.2l0,0h9.5c1.2,0,2-0.9,2-2c0-1.2-0.9-2-2-2l0,0h-6.7c3.8-6.4,10.8-10.4,18.4-10.4c11.8,0,21.5,9.6,21.5,21.5
		s-9.6,21.5-21.5,21.5c-9.7,0-18.2-6.5-20.7-15.9c-0.2-1.1-1.3-1.7-2.4-1.4c-1.1,0.3-1.7,1.3-1.4,2.5c3,11.1,13.1,18.9,24.6,18.9
		C46,57.5,57.5,46,57.5,32S46,6.5,32,6.5z"/>
</g>
</svg>
