<?xml version="1.0" encoding="utf-8"?>
<!-- Generator: Adobe Illustrator 24.0.3, SVG Export Plug-In . SVG Version: 6.00 Build 0)  -->
<svg version="1.1" id="Layer_1" xmlns="http://www.w3.org/2000/svg" xmlns:xlink="http://www.w3.org/1999/xlink" x="0px" y="0px"
	 viewBox="0 0 64 128" style="enable-background:new 0 0 64 128;" xml:space="preserve">
<style type="text/css">
	.st0{fill:none;stroke:#6F50D9;stroke-width:1.7765;stroke-linecap:round;stroke-linejoin:round;stroke-miterlimit:10;}
	.st1{fill:#6F50D9;stroke:#6F50D9;stroke-width:0.418;stroke-miterlimit:10;}
	.st2{fill:none;stroke:#D9D3EA;stroke-width:1.7765;stroke-linecap:round;stroke-linejoin:round;stroke-miterlimit:10;}
	.st3{fill:#D9D3EA;stroke:#D9D3EA;stroke-width:0.418;stroke-miterlimit:10;}
</style>
<path class="st0" d="M32.1,42.7c0.1,0,11.1-9.8,11.1-15.1c0-3.5-2.9-6.3-6.4-6.3c-1.8,0-3.5,1.5-4.7,2.9l0,0
	c-1.2-1.3-2.9-2.9-4.7-2.9c-3.5,0-6.4,2.8-6.4,6.4C21,32.9,32,42.7,32.1,42.7z"/>
<path class="st1" d="M37.3,30.4h-1.1L35,25.7c0-0.2-0.2-0.3-0.5-0.4c-0.2,0-0.4,0.1-0.5,0.3l-2.1,7.8l-2.7-4.3
	c-0.1-0.1-0.2-0.2-0.4-0.2c-0.2,0-0.3,0.1-0.4,0.2L27,31.6h-0.4c-0.3,0-0.5,0.2-0.5,0.5c0,0.3,0.2,0.5,0.5,0.5h0.6
	c0.2,0,0.3-0.1,0.4-0.2l1.2-2.1l2.8,4.6c0.1,0.1,0.2,0.2,0.4,0.2h0c0.2,0,0.3-0.1,0.4-0.3l1.9-7.1l0.8,3.3c0,0.2,0.2,0.4,0.5,0.4
	h1.6c0.3,0,0.5-0.2,0.5-0.5C37.7,30.5,37.5,30.4,37.3,30.4z"/>
<g>
	<path class="st2" d="M32.1,106.7c0.1,0,11.1-9.8,11.1-15.1c0-3.5-2.9-6.3-6.4-6.3c-1.8,0-3.5,1.5-4.7,2.9l0,0
		c-1.2-1.3-2.9-2.9-4.7-2.9c-3.5,0-6.4,2.8-6.4,6.4C21,96.9,32,106.7,32.1,106.7z"/>
	<path class="st3" d="M37.3,94.4h-1.1L35,89.7c0-0.2-0.2-0.3-0.5-0.4c-0.2,0-0.4,0.1-0.5,0.3l-2.1,7.8l-2.7-4.3
		c-0.1-0.1-0.2-0.2-0.4-0.2c-0.2,0-0.3,0.1-0.4,0.2L27,95.6h-0.4c-0.3,0-0.5,0.2-0.5,0.5s0.2,0.5,0.5,0.5h0.6c0.2,0,0.3-0.1,0.4-0.2
		l1.2-2.1l2.8,4.6c0.1,0.1,0.2,0.2,0.4,0.2h0c0.2,0,0.3-0.1,0.4-0.3l1.9-7.1l0.8,3.3c0,0.2,0.2,0.4,0.5,0.4h1.6
		c0.3,0,0.5-0.2,0.5-0.5C37.7,94.5,37.5,94.4,37.3,94.4z"/>
</g>
</svg>
