<?xml version="1.0" encoding="utf-8"?>
<!-- Generator: Adobe Illustrator 24.0.3, SVG Export Plug-In . SVG Version: 6.00 Build 0)  -->
<svg version="1.1" id="Layer_1" xmlns="http://www.w3.org/2000/svg" xmlns:xlink="http://www.w3.org/1999/xlink" x="0px" y="0px"
	 viewBox="0 0 64 64" style="enable-background:new 0 0 64 64;" xml:space="preserve">
<style type="text/css">
	.st0{fill:#D9D3EA;}
</style>
<g>
	<path class="st0" d="M32,48.2c-8.5,0-15.4-6.9-15.4-15.4c0-1.3,1.1-2.4,2.4-2.4s2.4,1.1,2.4,2.4c0,5.8,4.7,10.6,10.6,10.6
		s10.6-4.7,10.6-10.6c0-1.3,1.1-2.4,2.4-2.4c1.3,0,2.4,1.1,2.4,2.4C47.4,41.3,40.5,48.2,32,48.2"/>
	<path class="st0" d="M32,63C14.9,63,1,49.1,1,32S14.9,1,32,1s31,13.9,31,31S49.1,63,32,63 M32,5.9C17.6,5.9,5.9,17.6,5.9,32
		S17.6,58.1,32,58.1S58.1,46.4,58.1,32S46.4,5.9,32,5.9"/>
</g>
</svg>
