<?xml version="1.0" encoding="utf-8"?>
<!-- Generator: Adobe Illustrator 24.0.3, SVG Export Plug-In . SVG Version: 6.00 Build 0)  -->
<svg version="1.1" id="Layer_1" xmlns="http://www.w3.org/2000/svg" xmlns:xlink="http://www.w3.org/1999/xlink" x="0px" y="0px"
	 viewBox="0 0 64 64" style="enable-background:new 0 0 64 64;" xml:space="preserve">
<style type="text/css">
	.st0{fill:#D9D3EA;}
</style>
<path class="st0" d="M61.2,28L33.3,6c-0.5-0.3-0.9-0.5-1.3-0.5c-0.5,0-1,0.2-1.3,0.5L2.8,28c-0.8,0.7-1.2,2.2-0.5,3.1
	c0.8,1,2.3,1,3.1,0.3l4.5-3.5v28.4c0,1.2,1,2.2,2.2,2.2H26c1.2,0,2.2-1,2.2-2.2V43.6c0-2.1,1.6-3.6,3.6-3.6c2.1,0,3.6,1.6,3.6,3.6
	v12.7c0,1.2,1,2.2,2.2,2.2h13.9c1.2,0,2.2-1,2.2-2.2V27.8l4.5,3.5c0.9,0.8,2.5,0.7,3.1-0.3C62.3,30.2,62.1,28.6,61.2,28 M49.5,54.1
	H40V43.6c0-4.4-3.6-8.1-8.1-8.1c-4.4,0-8,3.6-8,8.1v10.5h-9.5V24.3L32,10.5l17.5,13.8V54.1z"/>
</svg>
