<?xml version="1.0" encoding="utf-8"?>
<!-- Generator: Adobe Illustrator 24.0.3, SVG Export Plug-In . SVG Version: 6.00 Build 0)  -->
<svg version="1.1" id="Layer_1" xmlns="http://www.w3.org/2000/svg" xmlns:xlink="http://www.w3.org/1999/xlink" x="0px" y="0px"
	 viewBox="0 0 64 64" style="enable-background:new 0 0 64 64;" xml:space="preserve">
<path d="M52.7,13.9H42l-0.6-3.1c0-0.1,0-0.2-0.1-0.3c-0.6-2-2.7-3.6-4.7-3.6h-9c-2,0-4.1,1.6-4.8,3.7c0,0.1-0.1,0.2-0.1,0.3l-0.5,3
	H11.5c-1.1,0-2.1,0.9-2.1,2.1c0,1.1,0.9,2.1,2.1,2.1h0.6l4.1,33.7c0.2,2.9,2.6,5.2,5.5,5.2h20.7c2.9,0,5.3-2.3,5.5-5.2L52,18.1h0.6
	c1.1,0,2.1-0.9,2.1-2.1C54.7,14.9,53.8,13.9,52.7,13.9z M26.8,11.8c0.2-0.4,0.6-0.7,0.8-0.7h9c0.2,0,0.6,0.3,0.8,0.7l0.4,2.1H26.4
	L26.8,11.8z M43.8,51.3c0,0.1,0,0.1,0,0.2c0,0.7-0.7,1.3-1.4,1.3H21.7c-0.7,0-1.3-0.6-1.4-1.3c0-0.1,0-0.1,0-0.2l-4-33.2h7.6l0,0
	h16.4l0,0l0,0h7.5L43.8,51.3z"/>
</svg>
