<?xml version="1.0" encoding="utf-8"?>
<!-- Generator: Adobe Illustrator 24.0.3, SVG Export Plug-In . SVG Version: 6.00 Build 0)  -->
<svg version="1.1" id="Layer_1" xmlns="http://www.w3.org/2000/svg" xmlns:xlink="http://www.w3.org/1999/xlink" x="0px" y="0px"
	 viewBox="0 0 64 128" style="enable-background:new 0 0 64 128;" xml:space="preserve">
<style type="text/css">
	.st0{fill:none;stroke:#6F50D9;stroke-width:1.7765;stroke-linecap:round;stroke-linejoin:round;stroke-miterlimit:10;}
	.st1{fill:none;stroke:#D9D3EA;stroke-width:1.7765;stroke-linecap:round;stroke-linejoin:round;stroke-miterlimit:10;}
</style>
<g>
	<circle class="st0" cx="32" cy="23.5" r="3.2"/>
	<path class="st0" d="M40.7,26.7H23.3c-0.7,0-1.2,0.8-1.2,1.8c0,1.1,0.5,1.8,1.2,1.8h5.4l-2.4,11.5c-0.1,0.6,0.6,1.4,1.7,1.6
		c1.1,0.3,2.1-0.1,2.3-0.8l1.7-8.2l1.7,8.2c0.1,0.6,1.1,1,2.3,0.8c1.1-0.3,1.9-1,1.7-1.6l-2.4-11.5h5.4c0.7,0,1.2-0.8,1.2-1.8
		C41.9,27.5,41.4,26.7,40.7,26.7z"/>
</g>
<g>
	<circle class="st1" cx="32" cy="87.5" r="3.2"/>
	<path class="st1" d="M40.7,90.7H23.3c-0.7,0-1.2,0.8-1.2,1.8c0,1.1,0.5,1.8,1.2,1.8h5.4l-2.4,11.5c-0.1,0.6,0.6,1.4,1.7,1.6
		c1.1,0.3,2.1-0.1,2.3-0.8l1.7-8.2l1.7,8.2c0.1,0.6,1.1,1,2.3,0.8c1.1-0.3,1.9-1,1.7-1.6l-2.4-11.5h5.4c0.7,0,1.2-0.8,1.2-1.8
		C41.9,91.5,41.4,90.7,40.7,90.7z"/>
</g>
</svg>
