<?xml version="1.0" encoding="utf-8"?>
<!-- Generator: Adobe Illustrator 24.0.3, SVG Export Plug-In . SVG Version: 6.00 Build 0)  -->
<svg version="1.1" id="Layer_1" xmlns="http://www.w3.org/2000/svg" xmlns:xlink="http://www.w3.org/1999/xlink" x="0px" y="0px"
	 viewBox="0 0 64 64" style="enable-background:new 0 0 64 64;" xml:space="preserve">
<style type="text/css">
	.st0{fill:#D9D3EA;}
</style>
<path class="st0" d="M55.1,47V33.2c0-9.8-6.1-18.3-15-21.6v-0.3c0-4.5-3.6-8.1-8.1-8.1s-8.1,3.6-8.1,8.1v0.3
	c-8.9,3.3-15,11.9-15,21.6V47C5.1,47,2,50.1,2,53.9c0,3.8,3.1,6.9,6.9,6.9h7.3h5.4h4.6h11.5h4.6H50h5c3.8,0,6.9-3.1,6.9-6.9
	C62,50.1,58.9,47,55.1,47z M55.1,56.2H8.9c-1.3,0-2.3-1-2.3-2.3s1-2.3,2.3-2.3c2.5,0,4.6-2.1,4.6-4.6V33.2c0-8.3,5.5-15.5,13.3-17.7
	l1.7-0.5v-3.7c0-1.9,1.6-3.5,3.5-3.5c1.9,0,3.5,1.5,3.5,3.5V15l1.7,0.5C45,17.8,50.5,25,50.5,33.2V47c0,2.6,2.1,4.6,4.6,4.6
	c1.3,0,2.3,1,2.3,2.3C57.4,55.2,56.3,56.2,55.1,56.2z"/>
</svg>
