<?xml version="1.0" encoding="utf-8"?>
<!-- Generator: Adobe Illustrator 24.0.3, SVG Export Plug-In . SVG Version: 6.00 Build 0)  -->
<svg version="1.1" id="Layer_1" xmlns="http://www.w3.org/2000/svg" xmlns:xlink="http://www.w3.org/1999/xlink" x="0px" y="0px"
	 viewBox="0 0 64 64" style="enable-background:new 0 0 64 64;" xml:space="preserve">
<style type="text/css">
	.st0{fill:#D9D3EA;}
</style>
<g>
	<path class="st0" d="M32,62C15.5,62,2,48.5,2,32S15.5,2,32,2s30,13.5,30,30S48.5,62,32,62 M32,5.6C17.5,5.6,5.6,17.5,5.6,32
		S17.5,58.4,32,58.4S58.4,46.5,58.4,32S46.5,5.6,32,5.6"/>
	<path class="st0" d="M34.1,29.4h-4.3c-1.4,0-2.5-1.1-2.5-2.5s1.1-2.5,2.5-2.5H39c0.4,0,0.7-0.3,0.7-0.7v-3.1c0-0.4-0.3-0.7-0.7-0.7
		h-4.7v-4.2c0-0.4-0.3-0.7-0.7-0.7h-3.1c-0.4,0-0.7,0.3-0.7,0.7v4.2c-3.8,0.1-6.9,3.2-6.9,7c0,3.9,3.2,7,7,7h4.3
		c1.4,0,2.5,1.1,2.5,2.5s-1.1,2.5-2.5,2.5h-9.4c-0.4,0-0.7,0.3-0.7,0.7v3.1c0,0.4,0.3,0.7,0.7,0.7h4.9v4.7c0,0.4,0.3,0.7,0.7,0.7
		h3.1c0.4,0,0.7-0.3,0.7-0.7v-4.7c3.8-0.1,6.9-3.2,6.9-7S38,29.4,34.1,29.4"/>
</g>
</svg>
