<?xml version="1.0" encoding="utf-8"?>
<!-- Generator: Adobe Illustrator 24.0.3, SVG Export Plug-In . SVG Version: 6.00 Build 0)  -->
<svg version="1.1" id="Layer_1" xmlns="http://www.w3.org/2000/svg" xmlns:xlink="http://www.w3.org/1999/xlink" x="0px" y="0px"
	 viewBox="0 0 64 128" style="enable-background:new 0 0 64 128;" xml:space="preserve">
<style type="text/css">
	.st0{fill:#6F50D9;}
	.st1{fill:#D9D3EA;}
</style>
<g>
	<g>
		<g>
			<path class="st0" d="M26,30.1c-4.3,0-4.9-2.5-4.9-4v-6h2v6c0,0.6,0,2,2.9,2s2.9-1.4,2.9-2v-6h2v6C30.9,27.6,30.3,30.1,26,30.1z"
				/>
		</g>
	</g>
	<rect x="25" y="21.1" class="st0" width="2" height="22.5"/>
	<path class="st0" d="M37.2,43.7c3.1,0,5.6-2.5,5.6-5.6c0-2.8-2-5.1-4.7-5.6V20.1h-2v12.4c-2.6,0.5-4.7,2.8-4.7,5.6
		C31.6,41.1,34.1,43.7,37.2,43.7z M37.2,34.4c2,0,3.7,1.6,3.7,3.7c0,2.1-1.6,3.7-3.7,3.7c-2.1,0-3.7-1.6-3.7-3.7
		C33.5,36,35.2,34.4,37.2,34.4z"/>
</g>
<g>
	<g>
		<g>
			<path class="st1" d="M21.1,84.3h2v6c0,0.6,0,2,2.9,2s2.9-1.4,2.9-2v-6h2v6c0,1.5-0.6,4-4.9,4s-4.9-2.5-4.9-4V84.3z"/>
		</g>
	</g>
	<rect x="25.1" y="85.3" class="st1" width="2" height="22.5"/>
	<path class="st1" d="M37.3,107.8c3.1,0,5.6-2.5,5.6-5.6c0-2.8-2-5.1-4.7-5.6V84.2h-2v12.4c-2.6,0.5-4.7,2.8-4.7,5.6
		C31.7,105.3,34.2,107.8,37.3,107.8z M37.3,98.5c2,0,3.7,1.6,3.7,3.7s-1.6,3.7-3.7,3.7c-2.1,0-3.7-1.6-3.7-3.7S35.3,98.5,37.3,98.5z
		"/>
</g>
</svg>
