<?xml version="1.0" encoding="utf-8"?>
<!-- Generator: Adobe Illustrator 24.0.3, SVG Export Plug-In . SVG Version: 6.00 Build 0)  -->
<svg version="1.1" id="Layer_1" xmlns="http://www.w3.org/2000/svg" xmlns:xlink="http://www.w3.org/1999/xlink" x="0px" y="0px"
	 viewBox="0 0 64 64" style="enable-background:new 0 0 64 64;" xml:space="preserve">
<style type="text/css">
	.st0{fill:#52636D;}
</style>
<g id="path4">
	<path class="st0" d="M40.8,23.4L40.8,23.4c0.1,0,0.2,0,0.3,0c1.4,0.1,2.6,0.4,3.7,0.9c-2.2,2.4-3.3,5.5-3.3,9
		c0,3.9,1.5,7.2,4.3,9.8c0.4,0.4,0.8,0.7,1.2,1c-0.5,1.1-1.1,2.1-1.8,3.1c-1.5,2.1-2.3,2.9-2.6,3.2c0,0,0,0-0.1,0.1
		c-0.8,0.7-1.4,0.9-1.8,0.9c-0.4,0-1.1-0.1-2.4-0.6c-1.9-0.8-3.7-1.2-5.4-1.2c-1.7,0-3.6,0.4-5.5,1.2c-1.5,0.6-2.2,0.7-2.4,0.7
		c0,0-0.1,0-0.1,0c-0.4,0-1-0.3-1.6-0.9c0,0-0.1-0.1-0.1-0.1c-0.4-0.3-1.2-1.2-2.8-3.4c-1.2-1.7-2.3-3.8-3.1-6.1
		c-0.9-2.5-1.3-4.9-1.3-7.2c0-2.4,0.5-4.5,1.5-6.2c0.7-1.3,1.7-2.3,2.9-3c1.2-0.7,2.5-1.1,3.9-1.1c0.4,0,1.3,0.1,3.1,0.8
		c2.8,1,3.8,1.2,4.7,1.2c0.7,0,1.5-0.1,5-1.4C39.1,23.6,40.2,23.4,40.8,23.4 M41.6,9.1c-1.2,0.1-2.4,0.4-3.7,1.1
		c-1.3,0.6-2.4,1.5-3.2,2.4C33,14.5,32,16.8,32,19c0,0.3,0,0.6,0.1,0.9c0.2,0,0.4,0,0.5,0c2.4,0,4.7-1.3,6.6-3.5
		c1.7-2,2.5-4.1,2.5-6.4v0C41.7,9.7,41.6,9.4,41.6,9.1L41.6,9.1z M40.8,19.9c-1.3,0-2.8,0.3-4.6,1c-2.2,0.8-3.5,1.2-3.8,1.2
		c-0.5,0-1.7-0.3-3.5-1c-1.8-0.7-3.3-1-4.4-1c-2,0-3.9,0.6-5.7,1.6c-1.7,1-3.1,2.4-4.2,4.2c-1.3,2.2-2,4.9-2,8
		c0,2.7,0.5,5.5,1.5,8.3c0.9,2.7,2.1,5,3.5,7c1.3,1.9,2.4,3.2,3.3,4c1.3,1.2,2.7,1.9,4,1.9c0.1,0,0.1,0,0.2,0c0.9,0,2.1-0.3,3.6-0.9
		c1.5-0.6,2.9-0.9,4.2-0.9c1.2,0,2.6,0.3,4.1,0.9c1.5,0.6,2.7,0.9,3.8,0.9c1.5,0,2.8-0.6,4.1-1.8c0.8-0.7,1.9-2,3.2-3.8
		c1-1.4,1.8-2.8,2.5-4.4c0.3-0.7,0.6-1.4,0.8-2.1c-1.2-0.5-2.2-1.2-3.2-2.1c-2.1-1.9-3.1-4.4-3.2-7.3c0-3.8,1.7-6.7,5.1-8.8
		c-1.9-2.7-4.8-4.3-8.7-4.6C41.2,19.9,41,19.9,40.8,19.9L40.8,19.9z"/>
</g>
</svg>
