<?xml version="1.0" encoding="utf-8"?>
<!-- Generator: Adobe Illustrator 24.0.3, SVG Export Plug-In . SVG Version: 6.00 Build 0)  -->
<svg version="1.1" id="Layer_1" xmlns="http://www.w3.org/2000/svg" xmlns:xlink="http://www.w3.org/1999/xlink" x="0px" y="0px"
	 viewBox="0 0 64 64" style="enable-background:new 0 0 64 64;" xml:space="preserve">
<style type="text/css">
	.st0{fill:#D9D3EA;}
</style>
<g>
	<path class="st0" d="M32,2C15.6,2,2,15.3,2,32s13.3,30,30,30c16.4,0,30-13.3,30-30S48.4,2,32,2 M17.1,53.8
		C17.4,45.9,24,39.7,32,39.7s14.4,6.4,14.9,14.1c-4.1,2.8-9.2,4.6-14.9,4.6C26.6,58.4,21.5,56.6,17.1,53.8 M23.8,27.6
		c0-4.6,3.6-8.2,8.2-8.2s8.2,3.6,8.2,8.2s-3.6,8.2-8.2,8.2C27.4,36.1,23.8,32.3,23.8,27.6 M50.2,51c-1-6.2-5.4-11.3-11.3-13.6
		c3.1-2.1,4.9-5.6,4.9-9.7c0-6.7-5.4-11.8-11.8-11.8c-6.7,0-11.8,5.4-11.8,11.8c0,3.8,2.1,7.4,4.9,9.7c-5.6,2.3-10,7.4-11.3,13.6
		c-5.1-4.9-8.2-11.5-8.2-19C5.6,17.4,17.4,5.6,32,5.6S58.4,17.4,58.4,32C58.4,39.4,55.1,46.4,50.2,51"/>
</g>
</svg>
