<?xml version="1.0" encoding="utf-8"?>
<!-- Generator: Adobe Illustrator 24.0.3, SVG Export Plug-In . SVG Version: 6.00 Build 0)  -->
<svg version="1.1" id="Layer_1" xmlns="http://www.w3.org/2000/svg" xmlns:xlink="http://www.w3.org/1999/xlink" x="0px" y="0px"
	 viewBox="0 0 64 64" style="enable-background:new 0 0 64 64;" xml:space="preserve">
<style type="text/css">
	.st0{fill:#6F50D9;}
</style>
<g>
	<g>
		<path class="st0" d="M42.8,59.1H21.2c-8.5,0-15.5-7-15.5-15.5V20.4c0-8.5,7-15.5,15.5-15.5h21.7c8.5,0,15.5,7,15.5,15.5v23.2
			C58.3,52.1,51.4,59.1,42.8,59.1z M21.2,8.8c-6.5,0-11.6,5.2-11.6,11.6v23.2c0,6.5,5.2,11.6,11.6,11.6h21.7
			c6.5,0,11.6-5.2,11.6-11.6V20.4c0-6.5-5.2-11.6-11.6-11.6H21.2z"/>
	</g>
	<g>
		<path class="st0" d="M32,45.9c-7.7,0-13.9-6.2-13.9-13.9c0-3.9,1.5-7.5,4.4-10.1c2.6-2.6,6.2-3.9,9.8-3.9c4.4,0,8,1.5,10.3,4.1
			c2.3,2.6,3.6,5.9,3.4,9.8l0,0c0,3.6-1.5,7.2-4.1,9.8C39.2,44.4,35.6,45.9,32,45.9z M31.7,21.9c-2.3,0-4.6,1-6.5,2.6
			c-2.1,1.8-3.1,4.6-3.1,7.2c0,5.4,4.4,10.1,10.1,10.1c5.4,0,9.8-4.4,10.1-10.1c0.3-5.9-3.6-9.8-10.1-10.1
			C31.7,21.9,31.7,21.9,31.7,21.9z"/>
	</g>
	<g>
		<circle class="st0" cx="46.7" cy="17" r="3.4"/>
	</g>
</g>
</svg>
