<?xml version="1.0" encoding="utf-8"?>
<!-- Generator: Adobe Illustrator 24.0.3, SVG Export Plug-In . SVG Version: 6.00 Build 0)  -->
<svg version="1.1" id="Layer_1" xmlns="http://www.w3.org/2000/svg" xmlns:xlink="http://www.w3.org/1999/xlink" x="0px" y="0px"
	 viewBox="0 0 64 64" style="enable-background:new 0 0 64 64;" xml:space="preserve">
<style type="text/css">
	.st0{fill:#6834F0;}
</style>
<g>
	<path class="st0" d="M45.3,36.6l-10.6-4.8V20.1c0-1.5-1.2-2.7-2.7-2.7c-1.5,0-2.7,1.2-2.7,2.7v13.3v0v0.1c0,0.1,0.1,0.2,0.1,0.3
		c0,0.2,0,0.5,0.1,0.7c0.1,0.2,0.2,0.3,0.3,0.4c0.1,0.2,0.2,0.3,0.3,0.5c0.1,0.1,0.3,0.2,0.5,0.4c0.1,0.1,0.2,0.2,0.3,0.2l12.2,5.6
		c0.4,0.2,0.7,0.2,1.1,0.2c1,0,2-0.6,2.5-1.6C47.3,38.9,46.7,37.3,45.3,36.6"/>
	<path class="st0" d="M32,62C15.5,62,2,48.5,2,32C2,15.5,15.5,2,32,2s30,13.5,30,30C62,48.5,48.5,62,32,62 M32,7.5
		C18.5,7.5,7.5,18.5,7.5,32c0,13.5,11,24.6,24.5,24.6c13.5,0,24.5-11,24.5-24.6C56.5,18.5,45.5,7.5,32,7.5"/>
</g>
</svg>
