<?xml version="1.0" encoding="utf-8"?>
<!-- Generator: Adobe Illustrator 22.0.1, SVG Export Plug-In . SVG Version: 6.00 Build 0)  -->
<svg version="1.1" id="Layer_1" xmlns="http://www.w3.org/2000/svg" xmlns:xlink="http://www.w3.org/1999/xlink" x="0px" y="0px"
	 viewBox="0 0 160 80" style="enable-background:new 0 0 160 80;" xml:space="preserve">
<style type="text/css">
	.st0{fill:#6F50D9;}
</style>
<g>
	<path class="st0" d="M47.2,17c-1.5-1.4-3.6-1.9-6.5-1.4c-6.2,0.9-10.9,3.6-14.5,7c-3.6-3.3-8.4-6.1-14.5-7c-2.9-0.4-5,0-6.5,1.4
		C2.6,19.3,3,23.2,3.4,27.8l1.4,16.6c1.7,12.8,9.5,20.2,21.4,20.2c11.8,0,19.6-7.3,21.4-20.2L49,27.8C49.4,23.2,49.7,19.3,47.2,17z
		 M22.1,38.1c0-1.8,1.3-5.5,4-9.2c2.8,3.7,4,7.4,4,9.2v6.1c0,2.2-1.8,4-4,4c-2.2,0-4-1.8-4-4V38.1z M44.7,27.5l-1.4,16.5
		c-1.5,10.6-7.5,16.4-17.1,16.4c-9.6,0-15.7-5.8-17.1-16.4L7.6,27.5c-0.3-3-0.5-6.5,0.4-7.4c0.4-0.4,1.5-0.5,3-0.3
		c5.2,0.8,9.2,3.1,12.2,5.9c-3.7,4.7-5.4,9.7-5.4,12.4v6.1c0,4.6,3.7,8.3,8.3,8.3c4.6,0,8.3-3.7,8.3-8.3v-6.1
		c0-2.7-1.7-7.8-5.4-12.4c3-2.8,7-5.2,12.2-5.9c1.5-0.2,2.5-0.1,3,0.3C45.3,21,45,24.4,44.7,27.5z"/>
	<g>
		<path class="st0" d="M68,43.2V31.6h4.3v11.7c0,3.4,1.7,5.5,4.7,5.5c3.1,0,4.7-2.1,4.7-5.5V31.6h4.3v11.6c0,7.3-4.7,9.3-9.1,9.3
			C72.7,52.5,68,50.5,68,43.2z"/>
		<path class="st0" d="M109,39.4V52h-4.3V40.4c0-3.3-1.4-5.6-4.5-5.6c-2.5,0-5.1,1.4-5.1,5.7V52h-4.3V31.6h3.8l0.5,2.5v0
			c1.3-1.8,3.5-3,6.3-3C104.9,31.1,109,33.1,109,39.4z"/>
		<path class="st0" d="M131.8,39.4V52h-4.3V40.4c0-3.3-1.4-5.6-4.5-5.6c-2.5,0-5.1,1.4-5.1,5.7V52h-4.3V31.6h3.8l0.5,2.5v0
			c1.3-1.8,3.5-3,6.3-3C127.7,31.1,131.8,33.1,131.8,39.4z"/>
		<path class="st0" d="M135.1,41.8c0-6,4.4-10.7,10.9-10.7c6.4,0,10.9,4.7,10.9,10.7c0,6-4.5,10.8-10.9,10.8
			C139.5,52.6,135.1,47.9,135.1,41.8z M152.4,41.8c0-3.9-2.6-7-6.4-7c-3.8,0-6.4,3-6.4,7c0,4,2.6,7,6.4,7
			C149.7,48.8,152.4,45.8,152.4,41.8z"/>
	</g>
</g>
</svg>
